<?xml version="1.0" encoding="UTF-8" standalone="no"?>
<svg
   xmlns:dc="http://purl.org/dc/elements/1.1/"
   xmlns:cc="http://creativecommons.org/ns#"
   xmlns:rdf="http://www.w3.org/1999/02/22-rdf-syntax-ns#"
   xmlns:svg="http://www.w3.org/2000/svg"
   xmlns="http://www.w3.org/2000/svg"
   xmlns:sodipodi="http://sodipodi.sourceforge.net/DTD/sodipodi-0.dtd"
   xmlns:inkscape="http://www.inkscape.org/namespaces/inkscape"
   width="120.54192mm"
   height="106.77173mm"
   viewBox="0 0 120.54192 106.77173"
   version="1.1"
   id="svg8"
   inkscape:version="1.0 (4035a4fb49, 2020-05-01)"
   sodipodi:docname="boom.svg">
  <defs
     id="defs2" />
  <sodipodi:namedview
     fit-margin-bottom="0"
     fit-margin-right="0"
     fit-margin-left="0"
     fit-margin-top="0"
     id="base"
     pagecolor="#ffffff"
     bordercolor="#666666"
     borderopacity="1.0"
     inkscape:pageopacity="0.0"
     inkscape:pageshadow="2"
     inkscape:zoom="1.4"
     inkscape:cx="228.05261"
     inkscape:cy="238.4414"
     inkscape:document-units="mm"
     inkscape:current-layer="layer1"
     inkscape:document-rotation="0"
     showgrid="false"
     inkscape:window-width="2560"
     inkscape:window-height="1385"
     inkscape:window-x="2560"
     inkscape:window-y="0"
     inkscape:window-maximized="1" />
  <metadata
     id="metadata5">
    <rdf:RDF>
      <cc:Work
         rdf:about="">
        <dc:format>image/svg+xml</dc:format>
        <dc:type
           rdf:resource="http://purl.org/dc/dcmitype/StillImage" />
        <dc:title></dc:title>
      </cc:Work>
    </rdf:RDF>
  </metadata>
  <g
     transform="translate(-16.219984,-108.61501)"
     inkscape:label="Layer 1"
     inkscape:groupmode="layer"
     id="layer1">
    <path
       style="fill:#000000;stroke-width:0.352778"
       d="m 44.442209,214.90811 c -1.261181,-0.35861 -2.689931,-0.72659 -3.175,-0.81771 -2.814859,-0.52881 -4.04068,-0.95164 -5.468056,-1.88614 -1.324147,-0.86691 -1.869564,-1.40033 -3.661514,-3.58099 -0.615557,-0.74909 -0.726502,-0.78538 -0.736471,-0.24089 -0.0065,0.35258 0.558148,1.17852 1.254673,1.83542 1.111768,1.04854 1.236137,1.33222 1.018494,2.32314 -0.136353,0.62081 -0.635434,1.48789 -1.109068,1.92684 -1.946678,1.68176 -6.367093,-1.09943 -7.145097,-2.79076 -0.213016,-0.5669 -0.352718,-0.49242 -1.087361,0.57972 -0.960887,1.40232 -1.429351,1.36134 -2.904849,-0.25412 -1.198742,-1.31246 -1.207771,-1.66384 -0.08505,-3.30982 0.889592,-1.3042 0.889592,-1.3042 -0.176389,-1.41475 -2.144799,-0.69901 -4.911616,-1.77941 -4.946537,-3.86652 0,-1.52362 0.643253,-2.31425 2.179345,-2.67865 0.642568,-0.15243 1.129618,-0.0391 1.523159,0.35445 1.132079,0.92782 3.423655,0.52644 4.058607,-0.18147 0,-0.19292 -0.548509,-0.5491 -1.21891,-0.79152 -0.77811,-0.28137 -1.369751,-0.80493 -1.636019,-1.44776 -0.366305,-0.88434 -0.320478,-1.10985 0.376231,-1.85147 0.670455,-0.71366 0.937531,-0.78965 1.724214,-0.49055 0.51198,0.19465 0.967775,0.34877 1.012877,0.34248 0.0451,-0.006 0.918227,0.37787 1.940277,0.8537 2.207215,1.10301 2.117584,0.65232 3.041238,-0.18631 0.271933,-0.10689 3.503443,-4.52756 3.887118,-5.42066 0.07216,-0.16796 -0.01089,-0.40608 -0.184537,-0.52917 -1.569008,-1.11208 -1.993868,-4.33556 -0.821461,-6.23255 0.812093,-1.314 1.312043,-1.84719 3.624239,-2.09627 1.052545,-0.11339 3.323116,1.40351 4.129733,1.51408 4.561335,0.98091 5.598023,-2.99449 8.03462,-0.74012 0.791706,0.73362 1.692645,1.54192 2.002086,1.79621 0.491683,0.40406 5.465478,-4.45891 39.448375,-38.56933 38.885754,-39.03169 38.885754,-39.03169 40.599204,-38.26456 2.53847,1.29159 7.14115,6.28288 6.80397,8.54732 -0.11191,0.43804 -17.6059,18.08828 -38.875523,39.22274 -38.672043,38.4263 -38.672043,38.4263 -36.87711,40.10274 0.987213,0.92204 1.794933,1.97581 1.794933,2.34172 0,0.36591 -0.487782,1.13156 -1.083959,1.70143 -0.995179,0.95128 -1.064581,1.16616 -0.847358,2.62364 0.130133,0.87313 0.349303,1.66688 0.487049,1.76389 1.919848,1.35216 1.812748,5.43224 -0.18614,7.09117 -1.029384,0.85431 -3.052826,1.02253 -4.669151,0.38817 -2.595642,-0.50229 -5.605936,1.98651 -8.492387,2.61132 -1.271535,0.46628 -2.525359,0.0119 -3.552498,-0.27804 z m 0.387997,-4.9488 c 4.70306,-1.90251 6.878323,-5.1447 7.020336,-9.91642 0,-2.08992 -0.909632,-4.66918 -2.095651,-5.94222 -0.559286,-0.60033 -1.097668,-0.7543 -2.569149,-0.73479 -2.253432,0.0299 -4.021371,0.35602 -5.208899,0.96092 -0.487313,0.24822 -1.282898,0.3936 -1.767967,0.32305 -0.48507,-0.0705 -1.199445,-0.17007 -1.5875,-0.22117 -0.388056,-0.0511 -0.799113,-0.21976 -0.913461,-0.3748 -1.951816,1.1906 -2.828616,3.48733 -4.023314,4.99884 -0.674168,0.84808 -1.128391,1.69951 -1.009384,1.89206 0.119007,0.19256 0.938086,0.66935 1.820176,1.05954 2.080657,0.92038 2.703014,1.54736 3.243441,3.26756 0.819718,2.60919 2.030277,4.45638 3.175597,4.84562 0.525535,0.17861 2.834766,0.0853 3.915775,-0.15819 z"
       id="path897"
       sodipodi:nodetypes="cssscssccsssccsccsssscccscssccssccssssscsccccccssscsccssssc" />
  </g>
</svg>
