<svg width="586.67mm" height="997.191" viewBox="0 0 586.67 263.84" xmlns="http://www.w3.org/2000/svg"><path d="M135.39 263.297c-1.843-.705-3.302-1.864-4.36-3.463-1.471-2.223-1.909-5.245-1.916-13.226l-.006-7.144h3.11l.12 8.202c.118 7.985.145 8.243 1 9.736 1.29 2.254 3.433 3.402 6.354 3.404 3.99.003 6.366-1.836 7.053-5.458.195-1.028.355-5.022.355-8.876v-7.008h3.175v7.35c0 4.187-.177 8.23-.411 9.396-.53 2.64-2.138 5.005-4.313 6.344-1.58.972-2.024 1.069-5.291 1.151-2.419.061-3.987-.07-4.87-.408zm22.822-.141c-.776-.37-1.837-1.129-2.356-1.687l-.946-1.014.895-1.033c.742-.858.992-.962 1.474-.613 2.828 2.052 3.694 2.364 5.575 2.011 1.87-.35 3.296-1.912 3.296-3.61 0-1.926-.645-2.643-4.331-4.82-3.605-2.129-4.9-3.338-5.5-5.129-.59-1.767-.491-3.152.348-4.886 2.087-4.31 8.166-4.677 11.863-.717l.794.85-1.019.976-1.018.975-1.654-1.262c-2.54-1.94-5.542-1.554-6.532.837-.877 2.117.293 3.558 4.968 6.124 2.797 1.534 4.774 3.61 5.101 5.354.532 2.832-.628 5.668-2.976 7.277-1.692 1.16-5.91 1.353-7.982.367zm32.279-.116c-2.757-1.078-5.973-4.357-7.032-7.171-1.042-2.767-.904-6.896.316-9.448 3.071-6.423 10.697-9.241 17.808-6.58 2.116.79 5.49 3.612 5.486 4.586 0 .278-.492.785-1.092 1.126l-1.089.62-1.77-1.592c-2.27-2.04-4.745-2.819-8.08-2.54-2.768.233-4.578 1.072-6.36 2.95-2.584 2.722-3.358 5.937-2.24 9.302 1.34 4.035 5.005 6.49 9.697 6.496 3.092.004 5.097-.757 7.35-2.792l1.442-1.303 1.072.634c.59.348 1.073.862 1.073 1.14 0 .83-2.812 3.254-4.92 4.242-1.685.791-2.503.932-5.84 1.005-3.268.071-4.187-.035-5.821-.675zm84.689-.008c-2.42-.929-4.841-3.308-6.217-6.11-.927-1.887-1.037-2.47-1.037-5.464 0-2.931.12-3.595.958-5.302 1.454-2.96 3.178-4.75 5.84-6.06 2.135-1.05 2.645-1.158 5.365-1.13 3.481.038 5.356.633 7.753 2.46 2.292 1.748 3.833 4.252 4.456 7.241.284 1.363.424 2.628.31 2.811-.122.197-4.59.333-10.96.333h-10.756l.238 1.323c.563 3.144 2.205 5.454 4.91 6.904 1.927 1.034 6.021 1.039 8.29.01 1.662-.753 3.33-2.171 4.267-3.63.518-.805.626-.83 1.679-.395 1.534.636 1.627.907.78 2.278-1.199 1.94-3.65 3.948-5.798 4.752-2.75 1.029-7.369 1.02-10.078-.02zm13.736-14.587c0-.873-1.263-3.082-2.349-4.108-2.232-2.11-6.16-2.948-9.343-1.994-1.874.561-4.038 2.503-5.079 4.557-.477.942-.868 1.797-.868 1.9 0 .104 3.969.189 8.82.189 7.705 0 8.819-.069 8.819-.544zm16.404 14.801c-3.305-1.178-6.673-4.88-7.613-8.366-.199-.738-.366-2.28-.371-3.428-.038-7.84 6.869-13.77 14.42-12.377 2.879.53 4.093 1.131 6 2.97l1.499 1.446v-4.027h3.175v23.989h-3.175v-4.024l-1.323 1.286c-.728.707-2.196 1.69-3.264 2.185-1.62.75-2.435.895-4.938.874-1.65-.013-3.634-.25-4.41-.527zm8.669-3.218c3.399-1.504 5.395-4.675 5.395-8.57 0-5.28-3.585-9.102-8.876-9.46-5.552-.374-9.939 3.806-9.947 9.48-.006 3.973 2.481 7.608 6.13 8.956 1.875.693 5.236.506 7.298-.406zm51.609 3.393c-3.431-.994-7.109-5.2-7.906-9.043-1.236-5.953 1.447-11.727 6.638-14.282 2.13-1.048 2.65-1.158 5.365-1.135 4.007.034 6.417.966 8.804 3.404.97.99 2.094 2.505 2.499 3.366.821 1.747 1.558 5.193 1.226 5.731-.135.218-4.257.35-10.971.35h-10.755l.237 1.322c.563 3.146 2.208 5.457 4.91 6.902 1.081.578 2.03.755 4.057.756 3.776 0 6.178-1.207 8.333-4.192.708-.982.8-1.01 1.858-.572 1.527.633 1.614.903.747 2.306-1.148 1.858-3.74 3.957-5.872 4.755-2.07.774-7.027.954-9.17.333zm13.277-14.566c0-.67-1.346-3.1-2.237-4.043-1.693-1.787-3.592-2.615-6.426-2.8-2.081-.136-2.747-.034-4.057.623-2 1.004-3.395 2.304-4.246 3.958-1.29 2.508-1.672 2.396 8.146 2.396 4.85 0 8.82-.06 8.82-.134zm63.627 14.1c-3.778-1.76-6.155-5.016-6.86-9.4-1.457-9.041 5.953-16.6 13.995-14.278 1.148.331 2.592.985 3.21 1.453 1.43 1.083 1.522 1.07 1.522-.208v-1.058h5.997v23.989h-5.997v-1.059c0-1.061-.454-1.397-.904-.669-.133.214-1.055.768-2.05 1.231-2.542 1.184-6.368 1.183-8.913-.002zm8.177-5.105c3.83-1.739 5.118-6.54 2.812-10.475-1.954-3.333-6.763-3.947-9.831-1.254-1.882 1.652-2.583 5.708-1.453 8.412a6.32 6.32 0 008.472 3.318zm84.548 5.305c-6.667-2.368-9.97-10.317-6.991-16.824 2.88-6.291 10.857-9.168 18.006-6.494 1.772.664 5.494 3.523 5.494 4.222 0 .163-1.065.862-2.365 1.553l-2.366 1.256-1.25-.86c-1.788-1.23-2.983-1.606-5.066-1.597-3.044.013-5.985 1.855-6.922 4.336-.617 1.632-.45 4.453.364 6.133 1.115 2.303 3.296 3.46 6.492 3.447 2.39-.01 3.713-.458 5.854-1.985.452-.322.983-.113 2.734 1.076 1.194.811 2.172 1.61 2.172 1.774 0 .577-2.897 2.907-4.526 3.641-2.396 1.079-8.985 1.262-11.63.323zm-448.45-11.697v-11.994h3.175v1.764c0 .97.085 1.764.188 1.764s.698-.582 1.322-1.294c2.126-2.42 6.188-3.486 9.325-2.444 1.897.63 4.056 2.58 4.674 4.22l.38 1.012 1.253-1.64c3.247-4.253 8.963-5.286 12.61-2.28 2.8 2.31 3.381 5.03 3.398 15.92l.011 6.967h-3.072l-.183-8.61c-.159-7.468-.27-8.79-.845-9.961-2.27-4.633-9.055-3.671-11.552 1.638-.675 1.434-.759 2.329-.868 9.26l-.12 7.673h-3.044l-.124-8.731c-.114-8.045-.18-8.828-.848-9.965-1.584-2.696-4.696-3.563-7.742-2.157-1.788.825-2.758 1.883-3.76 4.1-.725 1.607-.807 2.412-.938 9.256l-.144 7.497h-3.096zm87.49 0v-11.994h3.174v23.99h-3.175zm54.327 1.411v-10.583h-4.233V239.5l4.057-.211.198-9.036 2.977.216.099 4.498.098 4.498h4.96l-.109 1.323-.11 1.323-4.762.208v21.134h-3.175zm12.7-6.173v-16.757h3.175v13.495l1.614-1.488c2.324-2.142 4.386-2.972 7.382-2.97 2.755 0 4.604.74 6.222 2.483 2.28 2.459 2.757 5.048 2.767 15.025l.007 6.968h-3.175v-7.184c0-9.774-.382-11.509-2.958-13.432-.777-.58-1.499-.727-3.564-.727-2.313 0-2.752.114-4.11 1.068-2.048 1.44-3.4 3.478-3.83 5.77-.195 1.046-.355 4.737-.355 8.203v6.302h-3.175zm91.017 6.173v-10.583l-1.499-.053c-.825-.03-1.737-.07-2.028-.089-.35-.022-.567-.485-.64-1.357l-.109-1.323h4.276v-9.213l2.999.217.099 4.498.098 4.498h4.96l-.109 1.323-.11 1.323-4.762.208v21.134h-3.175zm11.29-1.41v-11.995h3.174v3.293l1.323-1.416c.742-.795 2.057-1.693 2.996-2.046 1.449-.546 1.883-.57 3.25-.188l1.576.441-.758 1.318c-.714 1.24-.844 1.31-2.191 1.162-2.991-.327-5.312 2.604-5.87 7.411-.162 1.402-.301 5.129-.31 8.282l-.015 5.732H343.6zm62.127 11.2c-.162-.436-1.259-3.492-2.437-6.79a2690.044 2690.044 0 00-3.928-10.923c-.983-2.708-1.788-5.09-1.789-5.292 0-.234 1.07-.326 2.96-.254l2.962.113.713 2.004c2.319 6.519 3.226 9.167 3.437 10.029.13.533.343.97.473.97.13 0 1.341-2.937 2.69-6.526l2.453-6.527h3.95l2.397 6.438c1.319 3.541 2.437 6.485 2.485 6.541.048.056.676-1.531 1.397-3.528.72-1.996 1.793-4.94 2.384-6.54l1.075-2.91h2.951c1.624 0 2.952.081 2.952.182 0 .1-1.93 5.498-4.288 11.994l-4.287 11.812h-4.053l-2.407-6.527c-1.325-3.59-2.507-6.526-2.629-6.526-.121 0-1.316 2.934-2.655 6.521l-2.435 6.521-2.037.005c-1.792.005-2.073-.09-2.333-.788zm59.227-11.2v-11.995h5.292l.004 1.323.004 1.323.882-1.119c.485-.615 1.6-1.393 2.477-1.728 1.353-.517 1.813-.544 3.024-.181 1.121.336 1.378.556 1.193 1.022-.13.327-.555 1.438-.944 2.468-.677 1.788-.756 1.862-1.748 1.644-1.367-.3-2.665.558-3.395 2.243-.438 1.012-.595 3.015-.718 9.145l-.157 7.849h-5.913v-11.994zm18.761 2.83c-1.805-5.04-3.749-10.445-4.32-12.009l-1.038-2.844 6.093.204 2.3 6.455c1.266 3.55 2.415 6.329 2.555 6.174s1.216-2.822 2.39-5.926c1.175-3.104 2.244-5.922 2.376-6.262.186-.48.655-.617 2.104-.617 2.15 0 1.606-.865 4.764 7.585 1.016 2.716 1.953 5.056 2.084 5.2.13.144 1.262-2.672 2.515-6.258l2.28-6.518 6.11-.008-1.176 3.263c-.646 1.795-2.59 7.153-4.318 11.906l-3.144 8.643h-4.1l-2.244-5.997c-1.234-3.299-2.371-6.298-2.526-6.665-.213-.505-.922.988-2.89 6.085l-2.606 6.753H487zm33.097-2.83v-11.995h5.998v23.99h-5.998zm40.57-4.777v-16.771l6.173.204.094 9.26c.052 5.093.21 9.25.353 9.235s2.062-2.077 4.266-4.586l4.008-4.56h7.7l-4.399 4.867c-2.42 2.677-4.706 5.257-5.08 5.733l-.682.866 5.601 6.088c3.08 3.348 5.602 6.165 5.602 6.26 0 .096-1.637.174-3.638.174h-3.637l-4.873-5.291c-2.68-2.91-4.972-5.292-5.094-5.293-.122 0-.174 2.381-.115 5.292l.106 5.292h-6.386zm-39.596-9.868c-1.063-.598-2.033-2.195-2.033-3.347 0-1.036.907-2.676 1.84-3.33.925-.648 2.831-.72 3.902-.146 2.232 1.194 2.739 4.07 1.05 5.961-1.179 1.319-3.272 1.698-4.759.862zm-343.81-3.106c-1.564-1.665-.493-4.127 1.791-4.117 1.36.006 1.776.245 2.358 1.35 1.352 2.567-2.146 4.9-4.149 2.767zm-85.31-11.09c.093-.34.258-1.331.366-2.205.108-.873.597-4.524 1.087-8.113 6.706-49.157 11.588-85.054 13.41-98.601.495-3.687.985-7.116 1.087-7.621.182-.895.066-.96-4.68-2.6l-11.374-3.933c-3.579-1.238-6.675-2.245-6.88-2.239-.204.006-1.245 1.153-2.312 2.548s-3.457 4.526-5.31 6.956-6.305 8.23-9.89 12.886c-9.445 12.267-11.979 15.577-13.463 17.595l-1.323 1.798v-5.967c0-3.282.154-12.17.342-19.75a5942.9 5942.9 0 00.479-20.55l.136-6.766-3.741-1.292c-2.058-.711-9.457-3.276-16.442-5.7-6.985-2.423-16.63-5.766-21.431-7.428s-8.732-3.13-8.732-3.263c0-.181 30.042-9.406 49.124-15.084l1.676-.498.042-1.65c.11-4.353.37-4.12 2.67 2.408a807.191 807.191 0 002.394 6.732c.161.418-1.973 2.237-8.442 7.195-8.047 6.167-9.616 7.556-8.041 7.114.34-.095 5.3-.277 11.024-.406l10.407-.233 1.706 4.88 3.497 9.996c.985 2.813 1.898 5.24 2.03 5.394.132.154 1.637-4.388 3.346-10.092l3.106-10.37 3.707-.228c2.04-.124 5.787-.247 8.327-.273 2.541-.025 5.792-.144 7.225-.264l2.606-.219-8.867-6.109c-5.729-3.946-8.864-6.319-8.858-6.702.014-.863 4.825-16.687 5.168-17 .16-.146 4.577-1.55 9.815-3.123s16.348-4.915 24.688-7.43c8.34-2.513 15.213-4.52 15.275-4.458.096.096-18.656 24.913-26.002 34.415a431.707 431.707 0 00-4.322 5.702l-2.005 2.704 2.194 3.117c1.207 1.715 3.076 4.388 4.154 5.94 1.078 1.552 3.425 4.926 5.215 7.496l3.253 4.675h11.206c6.164 0 11.282.075 11.374.168.093.093-.256 3.228-.776 6.967-.52 3.74-.908 6.844-.863 6.898.044.054.936-.713 1.981-1.704 2.544-2.413 8.248-6.696 11.263-8.457 4.893-2.857 10.908-5.094 16.743-6.227 4.934-.958 13.737-.87 18.521.186 12.668 2.795 21.107 9.133 26.021 19.543.71 1.504 1.377 2.733 1.481 2.732.105-.001 1.302-1.279 2.66-2.838 5.052-5.799 12.81-11.749 19.266-14.775 14.02-6.57 29.885-7.417 41.04-2.19 10.333 4.843 17.916 14.176 20.433 25.152 1.907 8.31 1.665 15.616-1.207 36.457a18694.65 18694.65 0 00-2.47 17.992 6329.152 6329.152 0 01-1.92 13.935 7922.501 7922.501 0 00-2.472 17.992c-.886 6.5-1.843 13.426-2.127 15.391s-.517 3.672-.517 3.793-7.23.219-16.067.219h-16.067l.195-1.147c.107-.63.676-4.718 1.265-9.084.588-4.365 1.783-13.176 2.655-19.579 2.687-19.73 5.378-39.679 6.024-44.649.865-6.658.867-15.682.004-18.498-1.789-5.838-5.804-9.722-11.522-11.146-3-.747-8.48-.595-11.747.325-9.155 2.578-17.908 10.152-22.295 19.288-1.932 4.024-2.675 6.212-4.194 12.347-1.968 7.952-2.498 11.475-9.183 61.03l-1.475 10.937-16.123.092c-8.867.05-16.123-.042-16.123-.206 0-.163.55-4.332 1.223-9.264 10.288-75.443 9.448-68.783 9.496-75.289.046-6.2-.59-8.896-2.925-12.39-1.702-2.547-2.459-3.268-5.11-4.86-3.067-1.844-5.426-2.439-9.74-2.456-4.33-.017-7.716.797-11.743 2.824-8.944 4.5-15.08 11.5-18.741 21.376-2.835 7.648-4.234 15.374-7.808 43.13-1.274 9.896-2.863 22.137-3.531 27.203-.668 5.065-1.215 9.39-1.215 9.613 0 .296-4.296.403-16.252.403-15.307 0-16.242-.036-16.081-.617zm232.52-.529c.107-.63.981-6.94 1.942-14.023 3.011-22.186 4.57-33.657 6.21-45.685 1.77-12.984 1.99-14.612 4.007-29.633.781-5.82 1.51-11.099 1.62-11.73l.2-1.146h-15.863l.159-1.147c.793-5.724 1.659-12.228 2.455-18.433.522-4.074 1.006-7.607 1.075-7.85.095-.335 2.006-.44 8.02-.44h7.896l1.08-7.85c.593-4.316 2.085-15.27 3.316-24.34l2.237-16.492 32.293-.001-.176.794c-.16.718-1.04 7.166-4.953 36.248-.692 5.141-1.35 9.864-1.462 10.495l-.204 1.146h20.522l-.17.97c-.094.534-.574 3.907-1.067 7.497s-1.285 9.285-1.761 12.657-.865 6.269-.865 6.438-4.604.307-10.23.307c-6.673 0-10.232.125-10.232.358 0 .317-2.685 20.28-5.67 42.152a8501.25 8501.25 0 00-2.266 16.757 11438.7 11438.7 0 01-3.183 23.46c-1.087 7.955-2.152 15.853-2.365 17.55l-.388 3.088H320.99l.195-1.147zm104.69-11.819c-1.8-7.13-4.682-18.52-6.406-25.31a39203.05 39203.05 0 01-8.481-33.515c-2.941-11.642-7.48-29.6-10.087-39.908-2.607-10.308-4.74-18.92-4.74-19.138 0-.288 4.25-.397 15.509-.397h15.509l.342 1.323c.188.728 1.792 7.038 3.564 14.023 3.25 12.81 5.756 22.598 9.346 36.512 1.077 4.172 2.546 9.926 3.264 12.788.72 2.862 1.406 5.203 1.526 5.203.12 0 3.604-6.23 7.74-13.847 6.17-11.36 14.84-27.329 28.825-53.1l1.584-2.919 12.8.192 3.45 13.23c1.897 7.275 4.458 17.118 5.691 21.871l5.31 20.461c1.686 6.5 3.254 12.411 3.482 13.135l.416 1.317 2.526-4.668c7.555-13.958 27.924-51.56 31.434-58.026l4.07-7.497h17.056c9.382 0 17.057.072 17.057.159 0 .087-2.404 4.572-5.342 9.966-2.938 5.394-7.837 14.41-10.886 20.038-5.39 9.945-11.455 21.108-25.685 47.272a19309.491 19309.491 0 00-23.787 43.827l-5.384 9.96-15.97.012-.162-.97c-.141-.845-4.004-16.012-6.447-25.312-.458-1.746-1.813-6.985-3.01-11.642-1.196-4.657-2.955-11.483-3.91-15.17-.954-3.686-2.242-8.726-2.863-11.2-.622-2.474-1.214-4.494-1.317-4.489-.103.005-3.535 6.236-7.627 13.847-4.092 7.61-12.426 23.085-18.52 34.387l-11.08 20.55-15.524-.002-3.271-12.964zM59.086 47.06l-7.762-5.4.052-7.905c.102-15.736.567-33.862.866-33.76.168.056 1.945 2.484 3.95 5.395a9708.059 9708.059 0 0014.755 21.343c10.69 15.406 10.372 14.9 9.64 15.389-.378.252-3.578 2.687-7.112 5.41-3.533 2.725-6.47 4.948-6.526 4.94-.056-.006-3.595-2.442-7.863-5.413z"/></svg>