<svg width="347.13mm" height="347.36mm" viewBox="0 0 347.13 347.36" xmlns="http://www.w3.org/2000/svg"><path d="M20.29 347.13c-5.052-.875-9.09-3.046-13.073-7.032-3.233-3.234-5.277-6.593-6.562-10.782-.627-2.041-.65-7.54-.65-155.57 0-125.82.084-153.78.465-155.22C1.69 13.895 4.17 9.79 7.826 6.34c2.868-2.706 5.453-4.245 9.16-5.455l2.689-.878h153.63c166.52 0 154.99-.13 159.41 1.81 6.196 2.728 11.652 9.062 13.782 16.006.626 2.042.649 7.545.649 155.75 0 148.21-.023 153.71-.65 155.75-2.406 7.845-8.562 14.31-16.141 16.957l-2.964 1.034-152.75.048c-84.014.027-153.47-.075-154.34-.226zm302.96-9.024c3.202-.66 5.52-1.582 8.186-3.26 2.37-1.493 2.444-1.586 4.422-5.529 2.807-5.597 2.635-.957 2.635-71.085 0-70.065.17-65.453-2.621-71.108-1.91-3.869-2.63-4.626-6.129-6.443-5.359-2.783 10.294-2.53-156.16-2.53-109.57 0-149.55.106-150.76.399-2.468.594-7.13 2.846-8.646 4.178-1.711 1.502-4.268 6.713-4.993 10.175-.473 2.261-.54 10.34-.54 65.329 0 69.768-.155 65.216 2.413 70.697 1.877 4.006 3.084 5.246 6.9 7.089 5.87 2.835-8.876 2.587 155.36 2.619 133.11.026 147.47-.025 149.93-.531zM64.24 300.395c-7.096-1.019-13.678-3.527-19.11-7.282-3.168-2.19-8.17-7.35-10.49-10.823-5.3-7.933-7.892-18.585-6.95-28.57.99-10.507 4.74-18.596 11.983-25.852 6.972-6.985 15.37-11.098 25.189-12.334 4.322-.544 13.196-.274 16.81.512 6.495 1.412 12.57 4.12 17.403 7.757 2.785 2.096 7.354 6.76 8.438 8.612l.618 1.056-8.57 6.53-.708-1.027c-1.481-2.146-6.272-6.475-9.07-8.197-15.74-9.687-37.806-4.568-46.605 10.81-3.263 5.704-4.388 10.727-4.097 18.305.22 5.744.94 8.636 3.279 13.164 2.853 5.525 7.706 10.433 13.184 13.335 10.62 5.626 24.61 5.152 34.768-1.179 1.55-.966 4.317-3.223 6.148-5.015l3.33-3.259 4.082 3.047a835.169 835.169 0 014.22 3.162c.293.243-3.023 4.169-5.23 6.192-4.266 3.912-9.886 7.206-15.546 9.113-6.148 2.071-16.256 2.922-23.077 1.943zm118.57-.196c-11.238-1.265-19.694-7.497-24.576-18.113-4.228-9.193-3.995-19.843.634-29.014 1.648-3.265 5.135-7.67 7.953-10.048 10.19-8.599 26.669-9.298 37.975-1.61 8.37 5.69 13.676 16.165 13.747 27.136l.01 1.676h-52.63l.244 1.852c1.11 8.454 7.2 15.728 14.83 17.716 1.173.305 3.539.538 5.44.535 8.426-.013 14.583-3.397 19.448-10.69 1.189-1.782 2.212-3.294 2.274-3.36.196-.211 8.632 4.288 8.632 4.604 0 .166-.42 1.13-.931 2.143-4.37 8.64-12.245 14.78-21.294 16.604-3.544.713-8.385.948-11.755.568zm23.56-40.292c-.559-1.867-2.492-5.346-3.79-6.82-3.587-4.075-10.063-6.86-15.912-6.844-7.674.022-14.66 4.3-17.944 10.99-.727 1.483-1.323 2.87-1.323 3.082 0 .275 5.634.386 19.603.386h19.603zm-87.03 8.668c-.097-31.699-.116-31.268 1.402-30.978.342.066 2.567.131 4.944.146l4.322.027v4.957l2.352-1.995c4.236-3.594 9.254-5.255 13.372-4.428 1.68.337 6.5 2.37 6.5 2.74 0 .233-4.672 7.731-5.1 8.185-.359.38-.808.337-2.533-.244-1.723-.58-2.378-.643-3.67-.354-5.984 1.338-9.69 7.455-10.54 17.395-.21 2.46-.382 11.292-.382 19.625v15.15h-10.576zm130.33 29.626c-.181-.349-1.445-3.254-2.807-6.456-1.362-3.201-7.097-16.648-12.745-29.88-5.647-13.233-10.268-24.126-10.268-24.208 0-.081 2.471-.13 5.49-.106l5.491.043 6.777 16.051a8362.512 8362.512 0 018.357 19.84c.868 2.084 1.658 3.786 1.755 3.782.097-.004 4.068-8.932 8.825-19.84l8.65-19.833h3.424l3.502 7.937c11.744 26.616 13.809 31.25 14.044 31.507.143.157 1.615-2.859 3.269-6.703l8.394-19.512c2.962-6.888 5.542-12.725 5.734-12.972.256-.33 1.732-.439 5.59-.413 2.883.02 5.242.153 5.242.297s-4.847 11.442-10.773 25.108c-5.925 13.665-11.838 27.343-13.14 30.396l-2.369 5.55-1.782.006c-2.146.007-.737 2.65-11.096-20.808-4.326-9.798-7.973-17.938-8.104-18.088s-4.135 8.502-8.898 19.226l-8.66 19.5-1.787.106c-1.432.085-1.852-.02-2.117-.529zm-111.24-170.82c5.76-1.692 10.986-5.077 14.741-9.546 2.07-2.465 4.932-7.004 5.275-8.368.13-.512-.687-1.084-4.107-2.88-2.347-1.232-4.32-2.184-4.384-2.116-.063.068-1.082 1.572-2.262 3.342-4.919 7.374-11.224 10.847-19.624 10.808-5.318-.024-9.4-1.56-13.3-5.006-3.351-2.96-6.17-8.486-6.808-13.342l-.243-1.852h52.727l-.238-3.087c-.317-4.113-.797-6.844-1.69-9.613-3.227-10.023-11.347-17.775-21.251-20.287-8.29-2.103-16.714-1.257-23.485 2.357-7.457 3.981-13.06 11.14-15.606 19.945-.685 2.369-.795 3.574-.796 8.745-.001 4.62.14 6.508.613 8.22 3.332 12.05 11.916 20.671 23.043 23.143 3.75.833 13.904.563 17.396-.463zm-29.235-38.837c0-.193.59-1.582 1.311-3.086 1.708-3.562 5.339-7.284 8.641-8.86 8.374-3.997 18.976-2.134 24.928 4.379 1.608 1.76 3.52 5.083 4.1 7.125l.226.794h-19.603c-12.796 0-19.603-.122-19.603-.352zm103.41 39.346c8.518-1.488 16.315-6.276 20.612-12.659l1.21-1.796-8.224-5.358-3.204 3.197c-5.22 5.21-10.205 7.298-17.492 7.33-6.781.03-11.948-1.885-16.343-6.06-4.726-4.489-7.014-9.786-7.014-16.24 0-6.507 2.196-11.418 7.15-15.99 2.834-2.618 5.831-4.206 9.843-5.217 2.546-.642 3.638-.725 7.409-.561 4.912.212 7.328.82 10.979 2.76 2.125 1.128 6.613 5.123 7.84 6.977l.558.845 4.076-2.545c2.242-1.4 4.076-2.705 4.076-2.901s-.588-1.258-1.308-2.358c-6.49-9.917-21.405-15.125-35.02-12.227-12.274 2.613-21.526 11.08-25.103 22.97-1.057 3.514-1.31 11.316-.496 15.337 1.26 6.235 4.226 11.437 9.205 16.15 5.061 4.792 9.326 6.88 17.62 8.633 1.8.38 10.907.189 13.625-.286zM72.155 91.541V56.087h17.286V45.151H43.58v10.936h17.639v70.908h10.936zm186.27 21.571c0-24.05.7-27.72 6.376-33.427 7.73-7.77 20.005-7.305 24.223.92 1.988 3.876 1.97 3.652 2.118 25.841l.137 20.55h10.597l-.161-20.374c-.172-21.74-.296-23.43-2.062-28.202-4.73-12.778-19.676-17.827-32.943-11.13-2.271 1.147-7.226 4.848-7.226 5.398 0 .183-.238.333-.529.333-.462 0-.529-1.879-.529-14.787 0-9.375-.127-14.83-.347-14.905-.19-.065-2.492-.07-5.115-.01l-4.768.107v83.57h10.23z"/></svg>